<?xml version="1.0" encoding="UTF-8" standalone="no"?>
<svg
   xmlns:dc="http://purl.org/dc/elements/1.1/"
   xmlns:cc="http://creativecommons.org/ns#"
   xmlns:rdf="http://www.w3.org/1999/02/22-rdf-syntax-ns#"
   xmlns:svg="http://www.w3.org/2000/svg"
   xmlns="http://www.w3.org/2000/svg"
   xmlns:sodipodi="http://sodipodi.sourceforge.net/DTD/sodipodi-0.dtd"
   xmlns:inkscape="http://www.inkscape.org/namespaces/inkscape"
   width="100"
   height="90"
   viewBox="0 0 100 90.00713"
   version="1.1"
   id="svg4"
   sodipodi:docname="ucc.svg"
   inkscape:version="0.92.3 (2405546, 2018-03-11)">
  <title
     id="title28">U. Cooperativa de Colombia logo</title>
  <metadata
     id="metadata10">
    <rdf:RDF>
      <cc:Work
         rdf:about="">
        <dc:format>image/svg+xml</dc:format>
        <dc:type
           rdf:resource="http://purl.org/dc/dcmitype/StillImage" />
        <dc:title>U. Cooperativa de Colombia logo</dc:title>
        <cc:license
           rdf:resource="http://scripts.sil.org/OFL" />
      </cc:Work>
      <cc:License
         rdf:about="http://scripts.sil.org/OFL">
        <cc:permits
           rdf:resource="http://scripts.sil.org/pub/OFL/Reproduction" />
        <cc:permits
           rdf:resource="http://scripts.sil.org/pub/OFL/Distribution" />
        <cc:permits
           rdf:resource="http://scripts.sil.org/pub/OFL/Embedding" />
        <cc:permits
           rdf:resource="http://scripts.sil.org/pub/OFL/DerivativeWorks" />
        <cc:requires
           rdf:resource="http://scripts.sil.org/pub/OFL/Notice" />
        <cc:requires
           rdf:resource="http://scripts.sil.org/pub/OFL/Attribution" />
        <cc:requires
           rdf:resource="http://scripts.sil.org/pub/OFL/ShareAlike" />
        <cc:requires
           rdf:resource="http://scripts.sil.org/pub/OFL/DerivativeRenaming" />
        <cc:requires
           rdf:resource="http://scripts.sil.org/pub/OFL/BundlingWhenSelling" />
      </cc:License>
    </rdf:RDF>
  </metadata>
  <defs
     id="defs8" />
  <sodipodi:namedview
     pagecolor="#ffffff"
     bordercolor="#000000"
     borderopacity="0.39215686"
     objecttolerance="1"
     gridtolerance="1"
     guidetolerance="1"
     inkscape:pageopacity="0"
     inkscape:pageshadow="2"
     inkscape:window-width="1920"
     inkscape:window-height="1052"
     id="namedview6"
     showgrid="true"
     inkscape:zoom="5.6568542"
     inkscape:cx="9.4862093"
     inkscape:cy="43.394105"
     inkscape:window-x="0"
     inkscape:window-y="411"
     inkscape:window-maximized="1"
     inkscape:current-layer="svg4"
     inkscape:pagecheckerboard="false"
     inkscape:showpageshadow="false"
     borderlayer="true"
     showguides="false">
    <inkscape:grid
       type="xygrid"
       id="grid13" />
  </sodipodi:namedview>
  <g
     transform="matrix(1.1021094,0,0,-1.1021094,3.5361406,99.369827)"
     id="g10">
    <g
       transform="scale(0.1)"
       id="g12">
      <path
         style="fill:#7fc52d;fill-opacity:1;fill-rule:evenodd;stroke:none;stroke-width:0.13333333"
         d="m -106.81055,0 v 43.5 c 0,7.645333 6.25506,13.900391 13.900394,13.900391 7.645333,0 13.898437,-6.255058 13.898437,-13.900391 V 0 Z m 64.501956,5.4980469 c -14.414666,0 -26.101562,11.6849431 -26.101562,26.0996091 0,14.414533 11.686896,26.09961 26.101562,26.09961 1.329067,0 2.63611,-0.09928 3.91211,-0.291016 v -8.134766 c -1.259867,0.278134 -2.56891,0.425782 -3.91211,0.425782 -9.995866,0 -18.099609,-8.103343 -18.099609,-18.09961 0,-9.995866 8.103743,-18.099609 18.099609,-18.099609 1.3432,0 2.652243,0.148181 3.91211,0.425781 V 5.7910156 c -1.276,-0.1922666 -2.583043,-0.2929687 -3.91211,-0.2929687 z"
         transform="matrix(7.5000002,0,0,-7.5000002,1040.1709,787.30097)"
         id="path14"
         inkscape:connector-curvature="0" />
      <path
         style="fill:#55b7c9;fill-opacity:1;fill-rule:evenodd;stroke:none;stroke-width:0.13333333"
         d="m -127.21094,0 v 44.199219 c 0,18.534933 15.16624,33.699219 33.701174,33.699219 h 55.113282 v -11.0625 c -1.414,0.171333 -2.852634,0.261718 -4.3125,0.261718 -12.076667,0 -22.743851,-6.030674 -29.15625,-15.24414 -3.056267,8.680666 -11.352789,14.947265 -21.044922,14.947265 h -0.002 c -12.265074,0 -22.298834,-10.035715 -22.298834,-22.300781 V 0 Z m 56.599612,0 V 9.6464844 C -67.461862,5.6490178 -63.47025,2.3442666 -58.90625,0 Z m 28.302734,27.447266 c -2.292266,0 -4.15039,1.858257 -4.15039,4.15039 0,2.292267 1.858124,4.150391 4.15039,4.150391 2.292134,0 4.150391,-1.858124 4.150391,-4.150391 0,-2.292133 -1.858257,-4.15039 -4.150391,-4.15039 z"
         transform="matrix(7.5000002,0,0,-7.5000002,1040.1709,787.30097)"
         id="path16"
         inkscape:connector-curvature="0" />
      <path
         id="path20"
         style="fill:#c7dc2b;fill-opacity:1;fill-rule:evenodd;stroke:none"
         d="m 722.852,648.195 c 10.218,0 20.074,-1.57 29.339,-4.472 v -46.118 c -8.519,5.297 -18.574,8.36 -29.339,8.36 -30.731,0 -55.649,-24.918 -55.649,-55.649 0,-30.734 24.918,-55.648 55.649,-55.648 10.765,0 20.82,3.059 29.339,8.359 V 456.91 c -9.265,-2.906 -19.121,-4.476 -29.339,-4.476 -54.059,0 -97.883,43.82 -97.883,97.882 0,54.059 43.824,97.879 97.883,97.879"
         inkscape:connector-curvature="0" />
    </g>
  </g>
</svg>
